<mxfile host="app.diagrams.net" agent="Mozilla/5.0 (Windows NT 10.0; Win64; x64; rv:135.0) Gecko/20100101 Firefox/135.0" version="26.0.16" pages="2">
  <diagram name="1 oldal" id="OsvAiRPGhBOQV1ppMJjS">
    <mxGraphModel dx="1434" dy="1943" grid="1" gridSize="10" guides="1" tooltips="1" connect="1" arrows="1" fold="1" page="1" pageScale="1" pageWidth="827" pageHeight="1169" math="0" shadow="0">
      <root>
        <mxCell id="0" />
        <mxCell id="1" parent="0" />
        <mxCell id="LuK84Zrr6KuTW3ZMAKLt-1" value="" style="ellipse;html=1;shape=startState;fillColor=#000000;strokeColor=#ff0000;" vertex="1" parent="1">
          <mxGeometry x="45" y="-105" width="30" height="30" as="geometry" />
        </mxCell>
        <mxCell id="LuK84Zrr6KuTW3ZMAKLt-2" value="" style="edgeStyle=orthogonalEdgeStyle;html=1;verticalAlign=bottom;endArrow=open;endSize=8;strokeColor=#ff0000;rounded=0;entryX=0;entryY=0.5;entryDx=0;entryDy=0;" edge="1" parent="1" source="LuK84Zrr6KuTW3ZMAKLt-8" target="LuK84Zrr6KuTW3ZMAKLt-9">
          <mxGeometry relative="1" as="geometry">
            <mxPoint x="440" y="-90" as="targetPoint" />
          </mxGeometry>
        </mxCell>
        <mxCell id="LuK84Zrr6KuTW3ZMAKLt-3" value="" style="endArrow=open;html=1;rounded=0;strokeColor=#FF0000;exitX=0.5;exitY=0;exitDx=0;exitDy=0;edgeStyle=orthogonalEdgeStyle;entryX=0.5;entryY=0;entryDx=0;entryDy=0;endFill=0;" edge="1" parent="1" source="LuK84Zrr6KuTW3ZMAKLt-9" target="LuK84Zrr6KuTW3ZMAKLt-8">
          <mxGeometry width="50" height="50" relative="1" as="geometry">
            <mxPoint x="472.78999999999996" y="-125.35533905932743" as="sourcePoint" />
            <mxPoint x="380" y="-180" as="targetPoint" />
          </mxGeometry>
        </mxCell>
        <mxCell id="LuK84Zrr6KuTW3ZMAKLt-4" value="[e is not owner]" style="text;html=1;align=center;verticalAlign=middle;whiteSpace=wrap;rounded=0;" vertex="1" parent="1">
          <mxGeometry x="290" y="-170" width="90" height="30" as="geometry" />
        </mxCell>
        <mxCell id="LuK84Zrr6KuTW3ZMAKLt-5" value="[e is owner]" style="text;html=1;align=center;verticalAlign=middle;resizable=0;points=[];autosize=1;strokeColor=none;fillColor=none;" vertex="1" parent="1">
          <mxGeometry x="395" y="-40" width="80" height="30" as="geometry" />
        </mxCell>
        <mxCell id="LuK84Zrr6KuTW3ZMAKLt-6" value="onTurnBegin(e : Player)" style="text;html=1;align=center;verticalAlign=middle;resizable=0;points=[];autosize=1;strokeColor=none;fillColor=none;" vertex="1" parent="1">
          <mxGeometry x="280" y="-90" width="150" height="30" as="geometry" />
        </mxCell>
        <mxCell id="LuK84Zrr6KuTW3ZMAKLt-7" value="" style="edgeStyle=orthogonalEdgeStyle;html=1;verticalAlign=bottom;endArrow=open;endSize=8;strokeColor=#ff0000;rounded=0;" edge="1" parent="1" source="LuK84Zrr6KuTW3ZMAKLt-1" target="LuK84Zrr6KuTW3ZMAKLt-8">
          <mxGeometry relative="1" as="geometry">
            <mxPoint x="230" y="-95" as="targetPoint" />
            <mxPoint x="120" y="-95" as="sourcePoint" />
          </mxGeometry>
        </mxCell>
        <mxCell id="LuK84Zrr6KuTW3ZMAKLt-8" value="&lt;div&gt;WaitingForTurn&lt;/div&gt;" style="rounded=1;whiteSpace=wrap;html=1;arcSize=40;fontColor=#000000;fillColor=#ffffc0;strokeColor=#ff0000;" vertex="1" parent="1">
          <mxGeometry x="160" y="-110" width="120" height="40" as="geometry" />
        </mxCell>
        <mxCell id="LuK84Zrr6KuTW3ZMAKLt-9" value="" style="rhombus;whiteSpace=wrap;html=1;" vertex="1" parent="1">
          <mxGeometry x="439" y="-125" width="70" height="70" as="geometry" />
        </mxCell>
        <mxCell id="LuK84Zrr6KuTW3ZMAKLt-10" value="&lt;div&gt;WaitForInput&lt;/div&gt;" style="rounded=1;whiteSpace=wrap;html=1;arcSize=40;fontColor=#000000;fillColor=#ffffc0;strokeColor=#ff0000;" vertex="1" parent="1">
          <mxGeometry x="494.99999999999994" y="440" width="120" height="40" as="geometry" />
        </mxCell>
        <mxCell id="LuK84Zrr6KuTW3ZMAKLt-11" value="" style="edgeStyle=orthogonalEdgeStyle;html=1;verticalAlign=bottom;endArrow=open;endSize=8;strokeColor=#ff0000;rounded=0;entryX=0.5;entryY=1;entryDx=0;entryDy=0;exitX=0;exitY=0.5;exitDx=0;exitDy=0;" edge="1" parent="1" source="LuK84Zrr6KuTW3ZMAKLt-10" target="LuK84Zrr6KuTW3ZMAKLt-8">
          <mxGeometry relative="1" as="geometry">
            <mxPoint x="390" y="350" as="targetPoint" />
            <mxPoint x="390" y="270" as="sourcePoint" />
          </mxGeometry>
        </mxCell>
        <mxCell id="LuK84Zrr6KuTW3ZMAKLt-12" value="endTurn" style="text;html=1;align=center;verticalAlign=middle;resizable=0;points=[];autosize=1;strokeColor=none;fillColor=none;" vertex="1" parent="1">
          <mxGeometry x="335" y="430" width="70" height="30" as="geometry" />
        </mxCell>
        <mxCell id="LuK84Zrr6KuTW3ZMAKLt-13" value="Eat" style="rounded=1;whiteSpace=wrap;html=1;arcSize=40;fontColor=#000000;fillColor=#ffffc0;strokeColor=#ff0000;" vertex="1" parent="1">
          <mxGeometry x="319" y="560" width="120" height="40" as="geometry" />
        </mxCell>
        <mxCell id="LuK84Zrr6KuTW3ZMAKLt-14" value="" style="edgeStyle=orthogonalEdgeStyle;html=1;verticalAlign=bottom;endArrow=open;endSize=8;strokeColor=#ff0000;rounded=0;" edge="1" parent="1" source="LuK84Zrr6KuTW3ZMAKLt-13" target="LuK84Zrr6KuTW3ZMAKLt-8">
          <mxGeometry relative="1" as="geometry">
            <mxPoint x="448" y="610" as="targetPoint" />
          </mxGeometry>
        </mxCell>
        <mxCell id="LuK84Zrr6KuTW3ZMAKLt-15" value="" style="edgeStyle=orthogonalEdgeStyle;html=1;verticalAlign=bottom;endArrow=open;endSize=8;strokeColor=#ff0000;rounded=0;exitX=0;exitY=0.75;exitDx=0;exitDy=0;entryX=0.5;entryY=0;entryDx=0;entryDy=0;" edge="1" parent="1" source="LuK84Zrr6KuTW3ZMAKLt-10" target="LuK84Zrr6KuTW3ZMAKLt-13">
          <mxGeometry relative="1" as="geometry">
            <mxPoint x="463" y="710" as="targetPoint" />
            <mxPoint x="463" y="650" as="sourcePoint" />
            <Array as="points">
              <mxPoint x="495" y="510" />
              <mxPoint x="379" y="510" />
            </Array>
          </mxGeometry>
        </mxCell>
        <mxCell id="LuK84Zrr6KuTW3ZMAKLt-16" value="eatSpore" style="text;html=1;align=center;verticalAlign=middle;resizable=0;points=[];autosize=1;strokeColor=none;fillColor=none;" vertex="1" parent="1">
          <mxGeometry x="310" y="508" width="70" height="30" as="geometry" />
        </mxCell>
        <mxCell id="LuK84Zrr6KuTW3ZMAKLt-17" value="Move" style="rounded=1;whiteSpace=wrap;html=1;arcSize=40;fontColor=#000000;fillColor=#ffffc0;strokeColor=#ff0000;" vertex="1" parent="1">
          <mxGeometry x="950" y="440" width="120" height="40" as="geometry" />
        </mxCell>
        <mxCell id="LuK84Zrr6KuTW3ZMAKLt-18" value="" style="edgeStyle=orthogonalEdgeStyle;html=1;verticalAlign=bottom;endArrow=open;endSize=8;strokeColor=#ff0000;rounded=0;exitX=1;exitY=0.5;exitDx=0;exitDy=0;" edge="1" parent="1" source="LuK84Zrr6KuTW3ZMAKLt-10" target="LuK84Zrr6KuTW3ZMAKLt-20">
          <mxGeometry relative="1" as="geometry">
            <mxPoint x="655" y="460" as="targetPoint" />
            <mxPoint x="553" y="660" as="sourcePoint" />
          </mxGeometry>
        </mxCell>
        <mxCell id="LuK84Zrr6KuTW3ZMAKLt-19" value="move" style="text;html=1;align=center;verticalAlign=middle;resizable=0;points=[];autosize=1;strokeColor=none;fillColor=none;" vertex="1" parent="1">
          <mxGeometry x="650" y="430" width="50" height="30" as="geometry" />
        </mxCell>
        <mxCell id="LuK84Zrr6KuTW3ZMAKLt-20" value="" style="rhombus;whiteSpace=wrap;html=1;" vertex="1" parent="1">
          <mxGeometry x="740" y="420" width="80" height="80" as="geometry" />
        </mxCell>
        <mxCell id="LuK84Zrr6KuTW3ZMAKLt-21" value="" style="edgeStyle=orthogonalEdgeStyle;html=1;verticalAlign=bottom;endArrow=open;endSize=8;strokeColor=#ff0000;rounded=0;exitX=0.5;exitY=1;exitDx=0;exitDy=0;entryX=0.75;entryY=1;entryDx=0;entryDy=0;" edge="1" parent="1" source="LuK84Zrr6KuTW3ZMAKLt-20" target="LuK84Zrr6KuTW3ZMAKLt-10">
          <mxGeometry relative="1" as="geometry">
            <mxPoint x="625" y="470" as="targetPoint" />
            <mxPoint x="543" y="470" as="sourcePoint" />
          </mxGeometry>
        </mxCell>
        <mxCell id="LuK84Zrr6KuTW3ZMAKLt-22" value="[remainingMoves=0]" style="text;html=1;align=center;verticalAlign=middle;resizable=0;points=[];autosize=1;strokeColor=none;fillColor=none;" vertex="1" parent="1">
          <mxGeometry x="630" y="520" width="130" height="30" as="geometry" />
        </mxCell>
        <mxCell id="LuK84Zrr6KuTW3ZMAKLt-23" value="" style="edgeStyle=orthogonalEdgeStyle;html=1;verticalAlign=bottom;endArrow=open;endSize=8;strokeColor=#ff0000;rounded=0;exitX=1;exitY=0.5;exitDx=0;exitDy=0;entryX=0;entryY=0.5;entryDx=0;entryDy=0;" edge="1" parent="1" source="LuK84Zrr6KuTW3ZMAKLt-20" target="LuK84Zrr6KuTW3ZMAKLt-17">
          <mxGeometry relative="1" as="geometry">
            <mxPoint x="670" y="480" as="targetPoint" />
            <mxPoint x="588" y="480" as="sourcePoint" />
          </mxGeometry>
        </mxCell>
        <mxCell id="LuK84Zrr6KuTW3ZMAKLt-24" value="[remainingMoves&amp;gt;0]" style="text;html=1;align=center;verticalAlign=middle;resizable=0;points=[];autosize=1;strokeColor=none;fillColor=none;" vertex="1" parent="1">
          <mxGeometry x="820" y="430" width="130" height="30" as="geometry" />
        </mxCell>
        <mxCell id="LuK84Zrr6KuTW3ZMAKLt-25" value="Cut" style="rounded=1;whiteSpace=wrap;html=1;arcSize=40;fontColor=#000000;fillColor=#ffffc0;strokeColor=#ff0000;" vertex="1" parent="1">
          <mxGeometry x="430" y="850" width="120" height="40" as="geometry" />
        </mxCell>
        <mxCell id="LuK84Zrr6KuTW3ZMAKLt-26" value="" style="edgeStyle=orthogonalEdgeStyle;html=1;verticalAlign=bottom;endArrow=open;endSize=8;strokeColor=#ff0000;rounded=0;" edge="1" parent="1" source="LuK84Zrr6KuTW3ZMAKLt-25" target="LuK84Zrr6KuTW3ZMAKLt-8">
          <mxGeometry relative="1" as="geometry">
            <mxPoint x="480" y="740" as="targetPoint" />
          </mxGeometry>
        </mxCell>
        <mxCell id="LuK84Zrr6KuTW3ZMAKLt-27" value="cutMycelium" style="text;html=1;align=center;verticalAlign=middle;resizable=0;points=[];autosize=1;strokeColor=none;fillColor=none;" vertex="1" parent="1">
          <mxGeometry x="405" y="630" width="90" height="30" as="geometry" />
        </mxCell>
        <mxCell id="LuK84Zrr6KuTW3ZMAKLt-28" value="" style="edgeStyle=orthogonalEdgeStyle;html=1;verticalAlign=bottom;endArrow=open;endSize=8;strokeColor=#ff0000;rounded=0;entryX=0.75;entryY=0;entryDx=0;entryDy=0;exitX=0.5;exitY=0;exitDx=0;exitDy=0;" edge="1" parent="1" source="LuK84Zrr6KuTW3ZMAKLt-17" target="LuK84Zrr6KuTW3ZMAKLt-10">
          <mxGeometry relative="1" as="geometry">
            <mxPoint x="540" y="410" as="targetPoint" />
            <mxPoint x="845" y="360" as="sourcePoint" />
            <Array as="points">
              <mxPoint x="1010" y="390" />
              <mxPoint x="585" y="390" />
            </Array>
          </mxGeometry>
        </mxCell>
        <mxCell id="LuK84Zrr6KuTW3ZMAKLt-29" value="" style="edgeStyle=orthogonalEdgeStyle;html=1;verticalAlign=bottom;endArrow=open;endSize=8;strokeColor=#ff0000;rounded=0;entryX=0.5;entryY=0;entryDx=0;entryDy=0;exitX=0.25;exitY=1;exitDx=0;exitDy=0;" edge="1" parent="1" source="LuK84Zrr6KuTW3ZMAKLt-10" target="LuK84Zrr6KuTW3ZMAKLt-30">
          <mxGeometry relative="1" as="geometry">
            <mxPoint x="455" y="590" as="targetPoint" />
            <mxPoint x="505" y="520" as="sourcePoint" />
            <Array as="points">
              <mxPoint x="525" y="590" />
              <mxPoint x="490" y="590" />
            </Array>
          </mxGeometry>
        </mxCell>
        <mxCell id="LuK84Zrr6KuTW3ZMAKLt-30" value="" style="rhombus;whiteSpace=wrap;html=1;" vertex="1" parent="1">
          <mxGeometry x="450" y="680" width="80" height="80" as="geometry" />
        </mxCell>
        <mxCell id="LuK84Zrr6KuTW3ZMAKLt-31" value="" style="edgeStyle=orthogonalEdgeStyle;html=1;verticalAlign=bottom;endArrow=open;endSize=8;strokeColor=#ff0000;rounded=0;exitX=1;exitY=0.5;exitDx=0;exitDy=0;entryX=0.5;entryY=1;entryDx=0;entryDy=0;" edge="1" parent="1" source="LuK84Zrr6KuTW3ZMAKLt-30" target="LuK84Zrr6KuTW3ZMAKLt-10">
          <mxGeometry relative="1" as="geometry">
            <mxPoint x="735" y="770" as="targetPoint" />
            <mxPoint x="735" y="710" as="sourcePoint" />
            <Array as="points">
              <mxPoint x="555" y="720" />
            </Array>
          </mxGeometry>
        </mxCell>
        <mxCell id="LuK84Zrr6KuTW3ZMAKLt-32" value="" style="edgeStyle=orthogonalEdgeStyle;html=1;verticalAlign=bottom;endArrow=open;endSize=8;strokeColor=#ff0000;rounded=0;exitX=0.5;exitY=1;exitDx=0;exitDy=0;entryX=0.5;entryY=0;entryDx=0;entryDy=0;" edge="1" parent="1" source="LuK84Zrr6KuTW3ZMAKLt-30" target="LuK84Zrr6KuTW3ZMAKLt-25">
          <mxGeometry relative="1" as="geometry">
            <mxPoint x="745" y="780" as="targetPoint" />
            <mxPoint x="745" y="720" as="sourcePoint" />
          </mxGeometry>
        </mxCell>
        <mxCell id="LuK84Zrr6KuTW3ZMAKLt-33" value="[can&#39;t cut]" style="text;html=1;align=center;verticalAlign=middle;resizable=0;points=[];autosize=1;strokeColor=none;fillColor=none;" vertex="1" parent="1">
          <mxGeometry x="550" y="620" width="70" height="30" as="geometry" />
        </mxCell>
        <mxCell id="LuK84Zrr6KuTW3ZMAKLt-34" value="[can cut]" style="text;html=1;align=center;verticalAlign=middle;resizable=0;points=[];autosize=1;strokeColor=none;fillColor=none;" vertex="1" parent="1">
          <mxGeometry x="425" y="780" width="70" height="30" as="geometry" />
        </mxCell>
        <mxCell id="LuK84Zrr6KuTW3ZMAKLt-35" value="/setEffect" style="text;html=1;align=center;verticalAlign=middle;resizable=0;points=[];autosize=1;strokeColor=none;fillColor=none;" vertex="1" parent="1">
          <mxGeometry x="240" y="555" width="70" height="30" as="geometry" />
        </mxCell>
        <mxCell id="LuK84Zrr6KuTW3ZMAKLt-36" value="HasTurn" style="rounded=1;whiteSpace=wrap;html=1;arcSize=40;fontColor=#000000;fillColor=#ffffc0;strokeColor=#ff0000;" vertex="1" parent="1">
          <mxGeometry x="495" y="-30" width="120" height="40" as="geometry" />
        </mxCell>
        <mxCell id="LuK84Zrr6KuTW3ZMAKLt-37" value="" style="edgeStyle=orthogonalEdgeStyle;html=1;verticalAlign=bottom;endArrow=open;endSize=8;strokeColor=#ff0000;rounded=0;entryX=0;entryY=0.5;entryDx=0;entryDy=0;exitX=0.5;exitY=1;exitDx=0;exitDy=0;" edge="1" parent="1" source="LuK84Zrr6KuTW3ZMAKLt-9" target="LuK84Zrr6KuTW3ZMAKLt-36">
          <mxGeometry relative="1" as="geometry">
            <mxPoint x="365" y="110" as="targetPoint" />
            <mxPoint x="365" y="50" as="sourcePoint" />
          </mxGeometry>
        </mxCell>
        <mxCell id="LuK84Zrr6KuTW3ZMAKLt-38" value="" style="edgeStyle=orthogonalEdgeStyle;html=1;verticalAlign=bottom;endArrow=open;endSize=8;strokeColor=#ff0000;rounded=0;entryX=0.5;entryY=0;entryDx=0;entryDy=0;" edge="1" parent="1" source="LuK84Zrr6KuTW3ZMAKLt-49" target="LuK84Zrr6KuTW3ZMAKLt-40">
          <mxGeometry relative="1" as="geometry">
            <mxPoint x="555" y="340" as="targetPoint" />
            <mxPoint x="555" y="210" as="sourcePoint" />
          </mxGeometry>
        </mxCell>
        <mxCell id="LuK84Zrr6KuTW3ZMAKLt-39" value="checkIfStunned" style="text;html=1;align=center;verticalAlign=middle;resizable=0;points=[];autosize=1;strokeColor=none;fillColor=none;" vertex="1" parent="1">
          <mxGeometry x="555" y="300" width="110" height="30" as="geometry" />
        </mxCell>
        <mxCell id="LuK84Zrr6KuTW3ZMAKLt-40" value="" style="rhombus;whiteSpace=wrap;html=1;" vertex="1" parent="1">
          <mxGeometry x="525" y="340" width="60" height="60" as="geometry" />
        </mxCell>
        <mxCell id="LuK84Zrr6KuTW3ZMAKLt-41" value="" style="edgeStyle=orthogonalEdgeStyle;html=1;verticalAlign=bottom;endArrow=open;endSize=8;strokeColor=#ff0000;rounded=0;exitX=0.5;exitY=1;exitDx=0;exitDy=0;entryX=0.5;entryY=0;entryDx=0;entryDy=0;" edge="1" parent="1" source="LuK84Zrr6KuTW3ZMAKLt-40" target="LuK84Zrr6KuTW3ZMAKLt-10">
          <mxGeometry relative="1" as="geometry">
            <mxPoint x="565" y="350" as="targetPoint" />
            <mxPoint x="565" y="300" as="sourcePoint" />
          </mxGeometry>
        </mxCell>
        <mxCell id="LuK84Zrr6KuTW3ZMAKLt-42" value="" style="edgeStyle=orthogonalEdgeStyle;html=1;verticalAlign=bottom;endArrow=open;endSize=8;strokeColor=#ff0000;rounded=0;exitX=0;exitY=0.5;exitDx=0;exitDy=0;entryX=0.5;entryY=1;entryDx=0;entryDy=0;jumpStyle=arc;" edge="1" parent="1" source="LuK84Zrr6KuTW3ZMAKLt-40" target="LuK84Zrr6KuTW3ZMAKLt-8">
          <mxGeometry relative="1" as="geometry">
            <mxPoint x="570" y="360" as="targetPoint" />
            <mxPoint x="570" y="310" as="sourcePoint" />
          </mxGeometry>
        </mxCell>
        <mxCell id="LuK84Zrr6KuTW3ZMAKLt-43" value="[is stunned]" style="text;html=1;align=center;verticalAlign=middle;resizable=0;points=[];autosize=1;strokeColor=none;fillColor=none;" vertex="1" parent="1">
          <mxGeometry x="330" y="340" width="80" height="30" as="geometry" />
        </mxCell>
        <mxCell id="LuK84Zrr6KuTW3ZMAKLt-44" value="[isn&#39;t stunned]" style="text;html=1;align=center;verticalAlign=middle;resizable=0;points=[];autosize=1;strokeColor=none;fillColor=none;" vertex="1" parent="1">
          <mxGeometry x="455" y="390" width="100" height="30" as="geometry" />
        </mxCell>
        <mxCell id="LuK84Zrr6KuTW3ZMAKLt-45" value="" style="edgeStyle=orthogonalEdgeStyle;html=1;verticalAlign=bottom;endArrow=open;endSize=8;strokeColor=#ff0000;rounded=0;exitX=0.5;exitY=1;exitDx=0;exitDy=0;entryX=0.5;entryY=0;entryDx=0;entryDy=0;" edge="1" parent="1" source="LuK84Zrr6KuTW3ZMAKLt-36" target="LuK84Zrr6KuTW3ZMAKLt-46">
          <mxGeometry relative="1" as="geometry">
            <mxPoint x="550" y="340" as="targetPoint" />
            <mxPoint x="550" y="10" as="sourcePoint" />
          </mxGeometry>
        </mxCell>
        <mxCell id="LuK84Zrr6KuTW3ZMAKLt-46" value="" style="rhombus;whiteSpace=wrap;html=1;" vertex="1" parent="1">
          <mxGeometry x="517.5" y="130" width="75" height="70" as="geometry" />
        </mxCell>
        <mxCell id="LuK84Zrr6KuTW3ZMAKLt-47" value="checkEffect" style="text;html=1;align=center;verticalAlign=middle;resizable=0;points=[];autosize=1;strokeColor=none;fillColor=none;" vertex="1" parent="1">
          <mxGeometry x="555" y="58" width="90" height="30" as="geometry" />
        </mxCell>
        <mxCell id="LuK84Zrr6KuTW3ZMAKLt-48" value="" style="edgeStyle=orthogonalEdgeStyle;html=1;verticalAlign=bottom;endArrow=open;endSize=8;strokeColor=#ff0000;rounded=0;entryX=0.25;entryY=0;entryDx=0;entryDy=0;jumpStyle=arc;jumpSize=12;" edge="1" parent="1" source="LuK84Zrr6KuTW3ZMAKLt-46" target="LuK84Zrr6KuTW3ZMAKLt-10">
          <mxGeometry relative="1" as="geometry">
            <mxPoint x="555" y="340" as="targetPoint" />
            <mxPoint x="555" y="200" as="sourcePoint" />
            <Array as="points">
              <mxPoint x="430" y="165" />
              <mxPoint x="430" y="430" />
              <mxPoint x="525" y="430" />
            </Array>
          </mxGeometry>
        </mxCell>
        <mxCell id="LuK84Zrr6KuTW3ZMAKLt-49" value="&lt;div&gt;WaitForStunCheck&lt;/div&gt;" style="rounded=1;whiteSpace=wrap;html=1;arcSize=40;fontColor=#000000;fillColor=#ffffc0;strokeColor=#ff0000;" vertex="1" parent="1">
          <mxGeometry x="495" y="250" width="120" height="40" as="geometry" />
        </mxCell>
        <mxCell id="LuK84Zrr6KuTW3ZMAKLt-50" value="[has no effects]" style="text;html=1;align=center;verticalAlign=middle;resizable=0;points=[];autosize=1;strokeColor=none;fillColor=none;" vertex="1" parent="1">
          <mxGeometry x="329" y="270" width="100" height="30" as="geometry" />
        </mxCell>
        <mxCell id="LuK84Zrr6KuTW3ZMAKLt-51" value="" style="edgeStyle=orthogonalEdgeStyle;html=1;verticalAlign=bottom;endArrow=open;endSize=8;strokeColor=#ff0000;rounded=0;exitX=1;exitY=0.5;exitDx=0;exitDy=0;" edge="1" parent="1" source="LuK84Zrr6KuTW3ZMAKLt-46">
          <mxGeometry relative="1" as="geometry">
            <mxPoint x="700" y="165" as="targetPoint" />
            <mxPoint x="565" y="20" as="sourcePoint" />
          </mxGeometry>
        </mxCell>
        <mxCell id="LuK84Zrr6KuTW3ZMAKLt-52" value="&lt;div&gt;[has effect]&lt;/div&gt;" style="text;html=1;align=center;verticalAlign=middle;resizable=0;points=[];autosize=1;strokeColor=none;fillColor=none;" vertex="1" parent="1">
          <mxGeometry x="592.5" y="140" width="80" height="30" as="geometry" />
        </mxCell>
        <mxCell id="LuK84Zrr6KuTW3ZMAKLt-53" value="&lt;div&gt;TickEffect&lt;/div&gt;" style="rounded=1;whiteSpace=wrap;html=1;arcSize=40;fontColor=#000000;fillColor=#ffffc0;strokeColor=#ff0000;" vertex="1" parent="1">
          <mxGeometry x="700" y="150" width="120" height="40" as="geometry" />
        </mxCell>
        <mxCell id="LuK84Zrr6KuTW3ZMAKLt-54" value="" style="edgeStyle=orthogonalEdgeStyle;html=1;verticalAlign=bottom;endArrow=open;endSize=8;strokeColor=#ff0000;rounded=0;entryX=0;entryY=0.5;entryDx=0;entryDy=0;" edge="1" parent="1" source="LuK84Zrr6KuTW3ZMAKLt-53" target="LuK84Zrr6KuTW3ZMAKLt-55">
          <mxGeometry relative="1" as="geometry">
            <mxPoint x="880" y="170" as="targetPoint" />
          </mxGeometry>
        </mxCell>
        <mxCell id="LuK84Zrr6KuTW3ZMAKLt-55" value="" style="rhombus;whiteSpace=wrap;html=1;" vertex="1" parent="1">
          <mxGeometry x="920" y="130" width="80" height="80" as="geometry" />
        </mxCell>
        <mxCell id="LuK84Zrr6KuTW3ZMAKLt-56" value="&lt;div&gt;reduceTimer&lt;/div&gt;" style="text;html=1;align=center;verticalAlign=middle;resizable=0;points=[];autosize=1;strokeColor=none;fillColor=none;" vertex="1" parent="1">
          <mxGeometry x="820" y="140" width="90" height="30" as="geometry" />
        </mxCell>
        <mxCell id="LuK84Zrr6KuTW3ZMAKLt-57" value="" style="edgeStyle=orthogonalEdgeStyle;html=1;verticalAlign=bottom;endArrow=open;endSize=8;strokeColor=#ff0000;rounded=0;exitX=1;exitY=0.5;exitDx=0;exitDy=0;" edge="1" parent="1" source="LuK84Zrr6KuTW3ZMAKLt-55">
          <mxGeometry relative="1" as="geometry">
            <mxPoint x="1150" y="170" as="targetPoint" />
            <mxPoint x="960" y="100" as="sourcePoint" />
            <Array as="points">
              <mxPoint x="1050" y="170" />
              <mxPoint x="1050" y="170" />
            </Array>
          </mxGeometry>
        </mxCell>
        <mxCell id="LuK84Zrr6KuTW3ZMAKLt-58" value="[duration is 0]" style="text;html=1;align=center;verticalAlign=middle;resizable=0;points=[];autosize=1;strokeColor=none;fillColor=none;" vertex="1" parent="1">
          <mxGeometry x="1020" y="140" width="100" height="30" as="geometry" />
        </mxCell>
        <mxCell id="LuK84Zrr6KuTW3ZMAKLt-59" value="" style="edgeStyle=orthogonalEdgeStyle;html=1;verticalAlign=bottom;endArrow=open;endSize=8;strokeColor=#ff0000;rounded=0;exitX=0.5;exitY=1;exitDx=0;exitDy=0;entryX=1;entryY=0.5;entryDx=0;entryDy=0;" edge="1" parent="1" source="LuK84Zrr6KuTW3ZMAKLt-55" target="LuK84Zrr6KuTW3ZMAKLt-49">
          <mxGeometry relative="1" as="geometry">
            <mxPoint x="1160" y="180" as="targetPoint" />
            <mxPoint x="1010" y="180" as="sourcePoint" />
            <Array as="points">
              <mxPoint x="960" y="270" />
            </Array>
          </mxGeometry>
        </mxCell>
        <mxCell id="LuK84Zrr6KuTW3ZMAKLt-60" value="[duration is not 0]" style="text;html=1;align=center;verticalAlign=middle;resizable=0;points=[];autosize=1;strokeColor=none;fillColor=none;" vertex="1" parent="1">
          <mxGeometry x="840" y="220" width="120" height="30" as="geometry" />
        </mxCell>
        <mxCell id="LuK84Zrr6KuTW3ZMAKLt-61" value="RemoveEffect" style="rounded=1;whiteSpace=wrap;html=1;arcSize=40;fontColor=#000000;fillColor=#ffffc0;strokeColor=#ff0000;" vertex="1" parent="1">
          <mxGeometry x="1150" y="150" width="120" height="40" as="geometry" />
        </mxCell>
        <mxCell id="LuK84Zrr6KuTW3ZMAKLt-62" value="" style="html=1;verticalAlign=bottom;endArrow=none;endSize=8;strokeColor=#ff0000;rounded=0;startFill=0;" edge="1" parent="1" source="LuK84Zrr6KuTW3ZMAKLt-61">
          <mxGeometry relative="1" as="geometry">
            <mxPoint x="960" y="270" as="targetPoint" />
            <Array as="points">
              <mxPoint x="1210" y="270" />
            </Array>
          </mxGeometry>
        </mxCell>
        <mxCell id="LuK84Zrr6KuTW3ZMAKLt-63" value="&lt;div&gt;removeEffect&lt;/div&gt;" style="text;html=1;align=center;verticalAlign=middle;resizable=0;points=[];autosize=1;strokeColor=none;fillColor=none;" vertex="1" parent="1">
          <mxGeometry x="1045" y="240" width="90" height="30" as="geometry" />
        </mxCell>
      </root>
    </mxGraphModel>
  </diagram>
  <diagram id="fvo-ZWUTkfIVBh4fSzhd" name="2 oldal">
    <mxGraphModel dx="1434" dy="780" grid="1" gridSize="10" guides="1" tooltips="1" connect="1" arrows="1" fold="1" page="1" pageScale="1" pageWidth="827" pageHeight="1169" math="0" shadow="0">
      <root>
        <mxCell id="0" />
        <mxCell id="1" parent="0" />
        <mxCell id="zqozf-nbstXWGJmwLp9R-1" value="" style="ellipse;html=1;shape=startState;fillColor=#000000;strokeColor=#ff0000;" vertex="1" parent="1">
          <mxGeometry x="225" y="105" width="30" height="30" as="geometry" />
        </mxCell>
        <mxCell id="zqozf-nbstXWGJmwLp9R-2" value="" style="edgeStyle=orthogonalEdgeStyle;html=1;verticalAlign=bottom;endArrow=open;endSize=8;strokeColor=#ff0000;rounded=0;" edge="1" parent="1" source="zqozf-nbstXWGJmwLp9R-14">
          <mxGeometry relative="1" as="geometry">
            <mxPoint x="620" y="120" as="targetPoint" />
          </mxGeometry>
        </mxCell>
        <mxCell id="zqozf-nbstXWGJmwLp9R-3" value="" style="endArrow=open;html=1;rounded=0;strokeColor=#FF0000;exitX=0.5;exitY=0;exitDx=0;exitDy=0;edgeStyle=orthogonalEdgeStyle;entryX=0.5;entryY=0;entryDx=0;entryDy=0;endFill=0;" edge="1" parent="1" source="zqozf-nbstXWGJmwLp9R-20" target="zqozf-nbstXWGJmwLp9R-14">
          <mxGeometry width="50" height="50" relative="1" as="geometry">
            <mxPoint x="652.79" y="84.64466094067257" as="sourcePoint" />
            <mxPoint x="560" y="30" as="targetPoint" />
          </mxGeometry>
        </mxCell>
        <mxCell id="zqozf-nbstXWGJmwLp9R-4" value="" style="endArrow=open;html=1;rounded=0;strokeColor=#FF0000;exitX=0;exitY=1;exitDx=0;exitDy=0;endFill=0;" edge="1" parent="1">
          <mxGeometry width="50" height="50" relative="1" as="geometry">
            <mxPoint x="652.79" y="155.35533905932743" as="sourcePoint" />
            <mxPoint x="653" y="240" as="targetPoint" />
          </mxGeometry>
        </mxCell>
        <mxCell id="zqozf-nbstXWGJmwLp9R-5" value="&lt;div&gt;WaitForInput&lt;/div&gt;" style="rounded=1;whiteSpace=wrap;html=1;arcSize=40;fontColor=#000000;fillColor=#ffffc0;strokeColor=#ff0000;" vertex="1" parent="1">
          <mxGeometry x="592.79" y="480" width="120" height="40" as="geometry" />
        </mxCell>
        <mxCell id="zqozf-nbstXWGJmwLp9R-6" value="[e is not owner]" style="text;html=1;align=center;verticalAlign=middle;whiteSpace=wrap;rounded=0;" vertex="1" parent="1">
          <mxGeometry x="470" y="40" width="90" height="30" as="geometry" />
        </mxCell>
        <mxCell id="zqozf-nbstXWGJmwLp9R-7" value="[e is owner]" style="text;html=1;align=center;verticalAlign=middle;resizable=0;points=[];autosize=1;strokeColor=none;fillColor=none;" vertex="1" parent="1">
          <mxGeometry x="660" y="170" width="80" height="30" as="geometry" />
        </mxCell>
        <mxCell id="zqozf-nbstXWGJmwLp9R-8" value="ejectSpores" style="text;html=1;align=center;verticalAlign=middle;resizable=0;points=[];autosize=1;strokeColor=none;fillColor=none;" vertex="1" parent="1">
          <mxGeometry x="655" y="540" width="90" height="30" as="geometry" />
        </mxCell>
        <mxCell id="zqozf-nbstXWGJmwLp9R-9" value="" style="endArrow=open;html=1;rounded=0;strokeColor=#FF0000;endFill=0;exitX=0.5;exitY=1;exitDx=0;exitDy=0;" edge="1" parent="1" source="zqozf-nbstXWGJmwLp9R-19" target="zqozf-nbstXWGJmwLp9R-5">
          <mxGeometry width="50" height="50" relative="1" as="geometry">
            <mxPoint x="420" y="650" as="sourcePoint" />
            <mxPoint x="340" y="765" as="targetPoint" />
          </mxGeometry>
        </mxCell>
        <mxCell id="zqozf-nbstXWGJmwLp9R-10" value="&lt;div&gt;Eject&lt;/div&gt;" style="rounded=1;whiteSpace=wrap;html=1;arcSize=40;fontColor=#000000;fillColor=#ffffc0;strokeColor=#ff0000;" vertex="1" parent="1">
          <mxGeometry x="592.79" y="590" width="120" height="40" as="geometry" />
        </mxCell>
        <mxCell id="zqozf-nbstXWGJmwLp9R-11" value="" style="edgeStyle=orthogonalEdgeStyle;html=1;verticalAlign=bottom;endArrow=none;endSize=8;strokeColor=#ff0000;rounded=0;elbow=vertical;startFill=0;" edge="1" parent="1" source="zqozf-nbstXWGJmwLp9R-27">
          <mxGeometry relative="1" as="geometry">
            <mxPoint x="400" y="240" as="targetPoint" />
            <Array as="points">
              <mxPoint x="170" y="500" />
              <mxPoint x="170" y="240" />
              <mxPoint x="370" y="240" />
            </Array>
          </mxGeometry>
        </mxCell>
        <mxCell id="zqozf-nbstXWGJmwLp9R-12" value="onTurnBegin(e : Player)" style="text;html=1;align=center;verticalAlign=middle;resizable=0;points=[];autosize=1;strokeColor=none;fillColor=none;" vertex="1" parent="1">
          <mxGeometry x="460" y="120" width="150" height="30" as="geometry" />
        </mxCell>
        <mxCell id="zqozf-nbstXWGJmwLp9R-13" value="" style="edgeStyle=orthogonalEdgeStyle;html=1;verticalAlign=bottom;endArrow=open;endSize=8;strokeColor=#ff0000;rounded=0;" edge="1" parent="1" source="zqozf-nbstXWGJmwLp9R-1" target="zqozf-nbstXWGJmwLp9R-14">
          <mxGeometry relative="1" as="geometry">
            <mxPoint x="410" y="115" as="targetPoint" />
            <mxPoint x="300" y="115" as="sourcePoint" />
          </mxGeometry>
        </mxCell>
        <mxCell id="zqozf-nbstXWGJmwLp9R-14" value="&lt;div&gt;WaitingForTurn&lt;/div&gt;" style="rounded=1;whiteSpace=wrap;html=1;arcSize=40;fontColor=#000000;fillColor=#ffffc0;strokeColor=#ff0000;" vertex="1" parent="1">
          <mxGeometry x="340" y="100" width="120" height="40" as="geometry" />
        </mxCell>
        <mxCell id="zqozf-nbstXWGJmwLp9R-15" value="[alive]" style="text;html=1;align=center;verticalAlign=middle;resizable=0;points=[];autosize=1;strokeColor=none;fillColor=none;" vertex="1" parent="1">
          <mxGeometry x="662.79" y="430" width="50" height="30" as="geometry" />
        </mxCell>
        <mxCell id="zqozf-nbstXWGJmwLp9R-16" value="&lt;div&gt;WaitForStatus&lt;/div&gt;" style="rounded=1;whiteSpace=wrap;html=1;arcSize=40;fontColor=#000000;fillColor=#ffffc0;strokeColor=#ff0000;" vertex="1" parent="1">
          <mxGeometry x="592.79" y="240" width="120" height="40" as="geometry" />
        </mxCell>
        <mxCell id="zqozf-nbstXWGJmwLp9R-17" value="" style="edgeStyle=orthogonalEdgeStyle;html=1;verticalAlign=bottom;endArrow=open;endSize=8;strokeColor=#ff0000;rounded=0;exitX=0.5;exitY=1;exitDx=0;exitDy=0;" edge="1" parent="1" source="zqozf-nbstXWGJmwLp9R-16" target="zqozf-nbstXWGJmwLp9R-19">
          <mxGeometry relative="1" as="geometry">
            <mxPoint x="500" y="585" as="targetPoint" />
            <mxPoint x="560" y="650" as="sourcePoint" />
          </mxGeometry>
        </mxCell>
        <mxCell id="zqozf-nbstXWGJmwLp9R-18" value="" style="endArrow=open;html=1;rounded=0;strokeColor=#FF0000;exitX=0.5;exitY=1;exitDx=0;exitDy=0;endFill=0;" edge="1" parent="1" source="zqozf-nbstXWGJmwLp9R-5">
          <mxGeometry width="50" height="50" relative="1" as="geometry">
            <mxPoint x="409.64466094067257" y="595" as="sourcePoint" />
            <mxPoint x="653" y="590" as="targetPoint" />
          </mxGeometry>
        </mxCell>
        <mxCell id="zqozf-nbstXWGJmwLp9R-19" value="" style="rhombus;whiteSpace=wrap;html=1;" vertex="1" parent="1">
          <mxGeometry x="612.79" y="340" width="80" height="80" as="geometry" />
        </mxCell>
        <mxCell id="zqozf-nbstXWGJmwLp9R-20" value="" style="rhombus;whiteSpace=wrap;html=1;" vertex="1" parent="1">
          <mxGeometry x="612.79" y="80" width="80" height="80" as="geometry" />
        </mxCell>
        <mxCell id="zqozf-nbstXWGJmwLp9R-21" value="" style="endArrow=open;html=1;rounded=0;strokeColor=#FF0000;endFill=0;startFill=0;exitX=0;exitY=0.5;exitDx=0;exitDy=0;entryX=0.5;entryY=1;entryDx=0;entryDy=0;edgeStyle=orthogonalEdgeStyle;startArrow=none;" edge="1" parent="1" source="zqozf-nbstXWGJmwLp9R-19" target="zqozf-nbstXWGJmwLp9R-14">
          <mxGeometry width="50" height="50" relative="1" as="geometry">
            <mxPoint x="460" y="610" as="sourcePoint" />
            <mxPoint x="380" y="350" as="targetPoint" />
          </mxGeometry>
        </mxCell>
        <mxCell id="zqozf-nbstXWGJmwLp9R-22" value="[dead]" style="text;html=1;align=center;verticalAlign=middle;resizable=0;points=[];autosize=1;strokeColor=none;fillColor=none;" vertex="1" parent="1">
          <mxGeometry x="475" y="350" width="60" height="30" as="geometry" />
        </mxCell>
        <mxCell id="zqozf-nbstXWGJmwLp9R-23" value="checkAlive" style="text;html=1;align=center;verticalAlign=middle;resizable=0;points=[];autosize=1;strokeColor=none;fillColor=none;" vertex="1" parent="1">
          <mxGeometry x="655" y="300" width="80" height="30" as="geometry" />
        </mxCell>
        <mxCell id="zqozf-nbstXWGJmwLp9R-24" value="" style="endArrow=none;html=1;rounded=0;strokeColor=#FF0000;endFill=0;exitX=0;exitY=0.5;exitDx=0;exitDy=0;entryX=0.683;entryY=1.033;entryDx=0;entryDy=0;entryPerimeter=0;edgeStyle=orthogonalEdgeStyle;startFill=0;" edge="1" parent="1" source="zqozf-nbstXWGJmwLp9R-5" target="zqozf-nbstXWGJmwLp9R-22">
          <mxGeometry width="50" height="50" relative="1" as="geometry">
            <mxPoint x="580" y="520" as="sourcePoint" />
            <mxPoint x="490" y="500" as="targetPoint" />
          </mxGeometry>
        </mxCell>
        <mxCell id="zqozf-nbstXWGJmwLp9R-25" value="Die" style="rounded=1;whiteSpace=wrap;html=1;arcSize=40;fontColor=#000000;fillColor=#ffffc0;strokeColor=#ff0000;" vertex="1" parent="1">
          <mxGeometry x="340" y="410" width="120" height="40" as="geometry" />
        </mxCell>
        <mxCell id="zqozf-nbstXWGJmwLp9R-26" value="" style="edgeStyle=elbowEdgeStyle;html=1;verticalAlign=bottom;endArrow=open;endSize=8;strokeColor=#ff0000;rounded=0;elbow=vertical;entryX=0.5;entryY=1;entryDx=0;entryDy=0;" edge="1" parent="1" target="zqozf-nbstXWGJmwLp9R-27">
          <mxGeometry relative="1" as="geometry">
            <mxPoint x="190" y="560" as="targetPoint" />
            <mxPoint x="592.79" y="610" as="sourcePoint" />
            <Array as="points">
              <mxPoint x="390" y="610" />
            </Array>
          </mxGeometry>
        </mxCell>
        <mxCell id="zqozf-nbstXWGJmwLp9R-27" value="" style="rhombus;whiteSpace=wrap;html=1;" vertex="1" parent="1">
          <mxGeometry x="210" y="460" width="80" height="80" as="geometry" />
        </mxCell>
        <mxCell id="zqozf-nbstXWGJmwLp9R-28" value="checkRemainingEjects" style="text;html=1;align=center;verticalAlign=middle;whiteSpace=wrap;rounded=0;" vertex="1" parent="1">
          <mxGeometry x="380" y="580" width="130" height="30" as="geometry" />
        </mxCell>
        <mxCell id="zqozf-nbstXWGJmwLp9R-29" value="[more than 0]" style="text;html=1;align=center;verticalAlign=middle;resizable=0;points=[];autosize=1;strokeColor=none;fillColor=none;" vertex="1" parent="1">
          <mxGeometry x="80" y="350" width="90" height="30" as="geometry" />
        </mxCell>
        <mxCell id="zqozf-nbstXWGJmwLp9R-30" value="" style="endArrow=open;html=1;rounded=0;strokeColor=#FF0000;exitX=0.5;exitY=0;exitDx=0;exitDy=0;edgeStyle=orthogonalEdgeStyle;entryX=0;entryY=0.5;entryDx=0;entryDy=0;endFill=0;" edge="1" parent="1" source="zqozf-nbstXWGJmwLp9R-27" target="zqozf-nbstXWGJmwLp9R-25">
          <mxGeometry width="50" height="50" relative="1" as="geometry">
            <mxPoint x="653" y="330" as="sourcePoint" />
            <mxPoint x="400" y="350" as="targetPoint" />
          </mxGeometry>
        </mxCell>
        <mxCell id="zqozf-nbstXWGJmwLp9R-31" value="[equals to 0]" style="text;html=1;align=center;verticalAlign=middle;resizable=0;points=[];autosize=1;strokeColor=none;fillColor=none;" vertex="1" parent="1">
          <mxGeometry x="250" y="400" width="90" height="30" as="geometry" />
        </mxCell>
        <mxCell id="zqozf-nbstXWGJmwLp9R-32" value="" style="endArrow=none;html=1;rounded=0;strokeColor=#FF0000;exitX=0.5;exitY=0;exitDx=0;exitDy=0;endFill=0;startFill=0;" edge="1" parent="1" source="zqozf-nbstXWGJmwLp9R-25">
          <mxGeometry width="50" height="50" relative="1" as="geometry">
            <mxPoint x="260" y="470" as="sourcePoint" />
            <mxPoint x="400" y="380" as="targetPoint" />
          </mxGeometry>
        </mxCell>
        <mxCell id="zqozf-nbstXWGJmwLp9R-33" value="endTurn" style="text;html=1;align=center;verticalAlign=middle;resizable=0;points=[];autosize=1;strokeColor=none;fillColor=none;" vertex="1" parent="1">
          <mxGeometry x="522.79" y="470" width="70" height="30" as="geometry" />
        </mxCell>
      </root>
    </mxGraphModel>
  </diagram>
</mxfile>
